<svg xmlns="http://www.w3.org/2000/svg" viewBox="0 0 32 32"><style>rect{width:1px;height:1px;fill:currentcolor}</style><rect x="5" y="1"/><rect x="6" y="1"/><rect x="13" y="1"/><rect x="14" y="1"/><rect x="15" y="1"/><rect x="16" y="1"/><rect x="17" y="1"/><rect x="18" y="1"/><rect x="19" y="1"/><rect x="20" y="1"/><rect x="23" y="1"/><rect x="24" y="1"/><rect x="25" y="1"/><rect x="26" y="1"/><rect x="27" y="1"/><rect x="28" y="1"/><rect x="29" y="1"/><rect x="30" y="1"/><rect x="5" y="2"/><rect x="6" y="2"/><rect x="13" y="2"/><rect x="14" y="2"/><rect x="15" y="2"/><rect x="16" y="2"/><rect x="17" y="2"/><rect x="18" y="2"/><rect x="19" y="2"/><rect x="20" y="2"/><rect x="23" y="2"/><rect x="24" y="2"/><rect x="25" y="2"/><rect x="26" y="2"/><rect x="27" y="2"/><rect x="28" y="2"/><rect x="29" y="2"/><rect x="30" y="2"/><rect x="5" y="3"/><rect x="6" y="3"/><rect x="13" y="3"/><rect x="14" y="3"/><rect x="19" y="3"/><rect x="20" y="3"/><rect x="23" y="3"/><rect x="24" y="3"/><rect x="29" y="3"/><rect x="30" y="3"/><rect x="5" y="4"/><rect x="6" y="4"/><rect x="13" y="4"/><rect x="14" y="4"/><rect x="19" y="4"/><rect x="20" y="4"/><rect x="23" y="4"/><rect x="24" y="4"/><rect x="29" y="4"/><rect x="30" y="4"/><rect x="5" y="5"/><rect x="6" y="5"/><rect x="13" y="5"/><rect x="14" y="5"/><rect x="15" y="5"/><rect x="16" y="5"/><rect x="17" y="5"/><rect x="18" y="5"/><rect x="19" y="5"/><rect x="20" y="5"/><rect x="23" y="5"/><rect x="24" y="5"/><rect x="25" y="5"/><rect x="26" y="5"/><rect x="27" y="5"/><rect x="28" y="5"/><rect x="29" y="5"/><rect x="30" y="5"/><rect x="5" y="6"/><rect x="6" y="6"/><rect x="13" y="6"/><rect x="14" y="6"/><rect x="15" y="6"/><rect x="16" y="6"/><rect x="17" y="6"/><rect x="18" y="6"/><rect x="19" y="6"/><rect x="20" y="6"/><rect x="23" y="6"/><rect x="24" y="6"/><rect x="25" y="6"/><rect x="26" y="6"/><rect x="27" y="6"/><rect x="28" y="6"/><rect x="29" y="6"/><rect x="30" y="6"/><rect x="4" y="7"/><rect x="5" y="7"/><rect x="13" y="7"/><rect x="14" y="7"/><rect x="19" y="7"/><rect x="20" y="7"/><rect x="23" y="7"/><rect x="24" y="7"/><rect x="29" y="7"/><rect x="30" y="7"/><rect x="4" y="8"/><rect x="5" y="8"/><rect x="13" y="8"/><rect x="14" y="8"/><rect x="19" y="8"/><rect x="20" y="8"/><rect x="23" y="8"/><rect x="24" y="8"/><rect x="29" y="8"/><rect x="30" y="8"/><rect x="1" y="9"/><rect x="2" y="9"/><rect x="3" y="9"/><rect x="4" y="9"/><rect x="5" y="9"/><rect x="6" y="9"/><rect x="7" y="9"/><rect x="8" y="9"/><rect x="9" y="9"/><rect x="10" y="9"/><rect x="11" y="9"/><rect x="13" y="9"/><rect x="14" y="9"/><rect x="15" y="9"/><rect x="16" y="9"/><rect x="17" y="9"/><rect x="18" y="9"/><rect x="19" y="9"/><rect x="20" y="9"/><rect x="23" y="9"/><rect x="24" y="9"/><rect x="25" y="9"/><rect x="26" y="9"/><rect x="27" y="9"/><rect x="28" y="9"/><rect x="29" y="9"/><rect x="30" y="9"/><rect x="1" y="10"/><rect x="2" y="10"/><rect x="3" y="10"/><rect x="4" y="10"/><rect x="5" y="10"/><rect x="6" y="10"/><rect x="7" y="10"/><rect x="8" y="10"/><rect x="9" y="10"/><rect x="10" y="10"/><rect x="11" y="10"/><rect x="13" y="10"/><rect x="14" y="10"/><rect x="15" y="10"/><rect x="16" y="10"/><rect x="17" y="10"/><rect x="18" y="10"/><rect x="19" y="10"/><rect x="20" y="10"/><rect x="23" y="10"/><rect x="24" y="10"/><rect x="25" y="10"/><rect x="26" y="10"/><rect x="27" y="10"/><rect x="28" y="10"/><rect x="29" y="10"/><rect x="30" y="10"/><rect x="4" y="11"/><rect x="5" y="11"/><rect x="9" y="11"/><rect x="10" y="11"/><rect x="13" y="11"/><rect x="14" y="11"/><rect x="29" y="11"/><rect x="30" y="11"/><rect x="3" y="12"/><rect x="4" y="12"/><rect x="5" y="12"/><rect x="9" y="12"/><rect x="10" y="12"/><rect x="13" y="12"/><rect x="14" y="12"/><rect x="21" y="12"/><rect x="22" y="12"/><rect x="29" y="12"/><rect x="30" y="12"/><rect x="3" y="13"/><rect x="4" y="13"/><rect x="9" y="13"/><rect x="10" y="13"/><rect x="13" y="13"/><rect x="14" y="13"/><rect x="21" y="13"/><rect x="22" y="13"/><rect x="29" y="13"/><rect x="30" y="13"/><rect x="3" y="14"/><rect x="4" y="14"/><rect x="9" y="14"/><rect x="10" y="14"/><rect x="13" y="14"/><rect x="14" y="14"/><rect x="16" y="14"/><rect x="17" y="14"/><rect x="18" y="14"/><rect x="19" y="14"/><rect x="20" y="14"/><rect x="21" y="14"/><rect x="22" y="14"/><rect x="23" y="14"/><rect x="24" y="14"/><rect x="25" y="14"/><rect x="26" y="14"/><rect x="27" y="14"/><rect x="29" y="14"/><rect x="30" y="14"/><rect x="2" y="15"/><rect x="3" y="15"/><rect x="9" y="15"/><rect x="10" y="15"/><rect x="13" y="15"/><rect x="14" y="15"/><rect x="16" y="15"/><rect x="17" y="15"/><rect x="18" y="15"/><rect x="19" y="15"/><rect x="20" y="15"/><rect x="21" y="15"/><rect x="22" y="15"/><rect x="23" y="15"/><rect x="24" y="15"/><rect x="25" y="15"/><rect x="26" y="15"/><rect x="27" y="15"/><rect x="29" y="15"/><rect x="30" y="15"/><rect x="2" y="16"/><rect x="3" y="16"/><rect x="9" y="16"/><rect x="10" y="16"/><rect x="13" y="16"/><rect x="14" y="16"/><rect x="21" y="16"/><rect x="22" y="16"/><rect x="29" y="16"/><rect x="30" y="16"/><rect x="2" y="17"/><rect x="3" y="17"/><rect x="9" y="17"/><rect x="10" y="17"/><rect x="13" y="17"/><rect x="14" y="17"/><rect x="21" y="17"/><rect x="22" y="17"/><rect x="29" y="17"/><rect x="30" y="17"/><rect x="1" y="18"/><rect x="2" y="18"/><rect x="3" y="18"/><rect x="8" y="18"/><rect x="9" y="18"/><rect x="13" y="18"/><rect x="14" y="18"/><rect x="18" y="18"/><rect x="19" y="18"/><rect x="21" y="18"/><rect x="22" y="18"/><rect x="24" y="18"/><rect x="25" y="18"/><rect x="29" y="18"/><rect x="30" y="18"/><rect x="1" y="19"/><rect x="2" y="19"/><rect x="3" y="19"/><rect x="8" y="19"/><rect x="9" y="19"/><rect x="13" y="19"/><rect x="14" y="19"/><rect x="18" y="19"/><rect x="19" y="19"/><rect x="21" y="19"/><rect x="22" y="19"/><rect x="24" y="19"/><rect x="25" y="19"/><rect x="29" y="19"/><rect x="30" y="19"/><rect x="2" y="20"/><rect x="3" y="20"/><rect x="4" y="20"/><rect x="8" y="20"/><rect x="9" y="20"/><rect x="13" y="20"/><rect x="14" y="20"/><rect x="18" y="20"/><rect x="19" y="20"/><rect x="21" y="20"/><rect x="22" y="20"/><rect x="24" y="20"/><rect x="25" y="20"/><rect x="29" y="20"/><rect x="30" y="20"/><rect x="3" y="21"/><rect x="4" y="21"/><rect x="5" y="21"/><rect x="8" y="21"/><rect x="9" y="21"/><rect x="13" y="21"/><rect x="14" y="21"/><rect x="18" y="21"/><rect x="19" y="21"/><rect x="21" y="21"/><rect x="22" y="21"/><rect x="24" y="21"/><rect x="25" y="21"/><rect x="29" y="21"/><rect x="30" y="21"/><rect x="4" y="22"/><rect x="5" y="22"/><rect x="6" y="22"/><rect x="8" y="22"/><rect x="9" y="22"/><rect x="13" y="22"/><rect x="14" y="22"/><rect x="18" y="22"/><rect x="19" y="22"/><rect x="21" y="22"/><rect x="22" y="22"/><rect x="24" y="22"/><rect x="25" y="22"/><rect x="29" y="22"/><rect x="30" y="22"/><rect x="5" y="23"/><rect x="6" y="23"/><rect x="7" y="23"/><rect x="8" y="23"/><rect x="13" y="23"/><rect x="14" y="23"/><rect x="18" y="23"/><rect x="19" y="23"/><rect x="21" y="23"/><rect x="22" y="23"/><rect x="24" y="23"/><rect x="25" y="23"/><rect x="29" y="23"/><rect x="30" y="23"/><rect x="6" y="24"/><rect x="7" y="24"/><rect x="8" y="24"/><rect x="9" y="24"/><rect x="10" y="24"/><rect x="13" y="24"/><rect x="14" y="24"/><rect x="18" y="24"/><rect x="19" y="24"/><rect x="21" y="24"/><rect x="22" y="24"/><rect x="24" y="24"/><rect x="25" y="24"/><rect x="29" y="24"/><rect x="30" y="24"/><rect x="5" y="25"/><rect x="6" y="25"/><rect x="7" y="25"/><rect x="9" y="25"/><rect x="10" y="25"/><rect x="13" y="25"/><rect x="14" y="25"/><rect x="17" y="25"/><rect x="18" y="25"/><rect x="21" y="25"/><rect x="22" y="25"/><rect x="25" y="25"/><rect x="26" y="25"/><rect x="29" y="25"/><rect x="30" y="25"/><rect x="4" y="26"/><rect x="5" y="26"/><rect x="6" y="26"/><rect x="13" y="26"/><rect x="14" y="26"/><rect x="17" y="26"/><rect x="18" y="26"/><rect x="21" y="26"/><rect x="22" y="26"/><rect x="25" y="26"/><rect x="26" y="26"/><rect x="29" y="26"/><rect x="30" y="26"/><rect x="3" y="27"/><rect x="4" y="27"/><rect x="5" y="27"/><rect x="13" y="27"/><rect x="14" y="27"/><rect x="17" y="27"/><rect x="18" y="27"/><rect x="21" y="27"/><rect x="22" y="27"/><rect x="25" y="27"/><rect x="26" y="27"/><rect x="29" y="27"/><rect x="30" y="27"/><rect x="2" y="28"/><rect x="3" y="28"/><rect x="4" y="28"/><rect x="13" y="28"/><rect x="14" y="28"/><rect x="21" y="28"/><rect x="22" y="28"/><rect x="29" y="28"/><rect x="30" y="28"/><rect x="3" y="29"/><rect x="13" y="29"/><rect x="14" y="29"/><rect x="21" y="29"/><rect x="22" y="29"/><rect x="27" y="29"/><rect x="28" y="29"/><rect x="29" y="29"/><rect x="30" y="29"/><rect x="13" y="30"/><rect x="14" y="30"/><rect x="27" y="30"/><rect x="28" y="30"/><rect x="29" y="30"/><rect x="30" y="30"/></svg>