<svg xmlns="http://www.w3.org/2000/svg" viewBox="0 0 32 32"><style>rect{width:1px;height:1px;fill:currentcolor}</style><rect x="15" y="1"/><rect x="16" y="1"/><rect x="6" y="2"/><rect x="7" y="2"/><rect x="15" y="2"/><rect x="16" y="2"/><rect x="24" y="2"/><rect x="25" y="2"/><rect x="6" y="3"/><rect x="7" y="3"/><rect x="15" y="3"/><rect x="16" y="3"/><rect x="24" y="3"/><rect x="25" y="3"/><rect x="6" y="4"/><rect x="7" y="4"/><rect x="15" y="4"/><rect x="16" y="4"/><rect x="24" y="4"/><rect x="25" y="4"/><rect x="6" y="5"/><rect x="7" y="5"/><rect x="8" y="5"/><rect x="9" y="5"/><rect x="10" y="5"/><rect x="11" y="5"/><rect x="12" y="5"/><rect x="13" y="5"/><rect x="14" y="5"/><rect x="15" y="5"/><rect x="16" y="5"/><rect x="17" y="5"/><rect x="18" y="5"/><rect x="19" y="5"/><rect x="20" y="5"/><rect x="21" y="5"/><rect x="22" y="5"/><rect x="23" y="5"/><rect x="24" y="5"/><rect x="25" y="5"/><rect x="6" y="6"/><rect x="7" y="6"/><rect x="8" y="6"/><rect x="9" y="6"/><rect x="10" y="6"/><rect x="11" y="6"/><rect x="12" y="6"/><rect x="13" y="6"/><rect x="14" y="6"/><rect x="15" y="6"/><rect x="16" y="6"/><rect x="17" y="6"/><rect x="18" y="6"/><rect x="19" y="6"/><rect x="20" y="6"/><rect x="21" y="6"/><rect x="22" y="6"/><rect x="23" y="6"/><rect x="24" y="6"/><rect x="25" y="6"/><rect x="15" y="8"/><rect x="16" y="8"/><rect x="6" y="9"/><rect x="7" y="9"/><rect x="8" y="9"/><rect x="9" y="9"/><rect x="10" y="9"/><rect x="11" y="9"/><rect x="12" y="9"/><rect x="13" y="9"/><rect x="14" y="9"/><rect x="15" y="9"/><rect x="16" y="9"/><rect x="17" y="9"/><rect x="18" y="9"/><rect x="19" y="9"/><rect x="20" y="9"/><rect x="21" y="9"/><rect x="22" y="9"/><rect x="23" y="9"/><rect x="24" y="9"/><rect x="25" y="9"/><rect x="6" y="10"/><rect x="7" y="10"/><rect x="8" y="10"/><rect x="9" y="10"/><rect x="10" y="10"/><rect x="11" y="10"/><rect x="12" y="10"/><rect x="13" y="10"/><rect x="14" y="10"/><rect x="15" y="10"/><rect x="16" y="10"/><rect x="17" y="10"/><rect x="18" y="10"/><rect x="19" y="10"/><rect x="20" y="10"/><rect x="21" y="10"/><rect x="22" y="10"/><rect x="23" y="10"/><rect x="24" y="10"/><rect x="25" y="10"/><rect x="10" y="11"/><rect x="11" y="11"/><rect x="20" y="11"/><rect x="21" y="11"/><rect x="10" y="12"/><rect x="11" y="12"/><rect x="20" y="12"/><rect x="21" y="12"/><rect x="11" y="13"/><rect x="12" y="13"/><rect x="19" y="13"/><rect x="20" y="13"/><rect x="11" y="14"/><rect x="12" y="14"/><rect x="19" y="14"/><rect x="20" y="14"/><rect x="3" y="15"/><rect x="4" y="15"/><rect x="5" y="15"/><rect x="6" y="15"/><rect x="7" y="15"/><rect x="8" y="15"/><rect x="9" y="15"/><rect x="10" y="15"/><rect x="11" y="15"/><rect x="12" y="15"/><rect x="13" y="15"/><rect x="14" y="15"/><rect x="15" y="15"/><rect x="16" y="15"/><rect x="17" y="15"/><rect x="18" y="15"/><rect x="19" y="15"/><rect x="20" y="15"/><rect x="21" y="15"/><rect x="22" y="15"/><rect x="23" y="15"/><rect x="24" y="15"/><rect x="25" y="15"/><rect x="26" y="15"/><rect x="27" y="15"/><rect x="28" y="15"/><rect x="3" y="16"/><rect x="4" y="16"/><rect x="5" y="16"/><rect x="6" y="16"/><rect x="7" y="16"/><rect x="8" y="16"/><rect x="9" y="16"/><rect x="10" y="16"/><rect x="11" y="16"/><rect x="12" y="16"/><rect x="13" y="16"/><rect x="14" y="16"/><rect x="15" y="16"/><rect x="16" y="16"/><rect x="17" y="16"/><rect x="18" y="16"/><rect x="19" y="16"/><rect x="20" y="16"/><rect x="21" y="16"/><rect x="22" y="16"/><rect x="23" y="16"/><rect x="24" y="16"/><rect x="25" y="16"/><rect x="26" y="16"/><rect x="27" y="16"/><rect x="28" y="16"/><rect x="6" y="19"/><rect x="7" y="19"/><rect x="8" y="19"/><rect x="9" y="19"/><rect x="10" y="19"/><rect x="11" y="19"/><rect x="12" y="19"/><rect x="13" y="19"/><rect x="14" y="19"/><rect x="15" y="19"/><rect x="16" y="19"/><rect x="17" y="19"/><rect x="18" y="19"/><rect x="19" y="19"/><rect x="20" y="19"/><rect x="21" y="19"/><rect x="22" y="19"/><rect x="23" y="19"/><rect x="24" y="19"/><rect x="25" y="19"/><rect x="6" y="20"/><rect x="7" y="20"/><rect x="8" y="20"/><rect x="9" y="20"/><rect x="10" y="20"/><rect x="11" y="20"/><rect x="12" y="20"/><rect x="13" y="20"/><rect x="14" y="20"/><rect x="15" y="20"/><rect x="16" y="20"/><rect x="17" y="20"/><rect x="18" y="20"/><rect x="19" y="20"/><rect x="20" y="20"/><rect x="21" y="20"/><rect x="22" y="20"/><rect x="23" y="20"/><rect x="24" y="20"/><rect x="25" y="20"/><rect x="6" y="21"/><rect x="7" y="21"/><rect x="24" y="21"/><rect x="25" y="21"/><rect x="6" y="22"/><rect x="7" y="22"/><rect x="24" y="22"/><rect x="25" y="22"/><rect x="6" y="23"/><rect x="7" y="23"/><rect x="24" y="23"/><rect x="25" y="23"/><rect x="6" y="24"/><rect x="7" y="24"/><rect x="8" y="24"/><rect x="9" y="24"/><rect x="10" y="24"/><rect x="11" y="24"/><rect x="12" y="24"/><rect x="13" y="24"/><rect x="14" y="24"/><rect x="15" y="24"/><rect x="16" y="24"/><rect x="17" y="24"/><rect x="18" y="24"/><rect x="19" y="24"/><rect x="20" y="24"/><rect x="21" y="24"/><rect x="22" y="24"/><rect x="23" y="24"/><rect x="24" y="24"/><rect x="25" y="24"/><rect x="6" y="25"/><rect x="7" y="25"/><rect x="8" y="25"/><rect x="9" y="25"/><rect x="10" y="25"/><rect x="11" y="25"/><rect x="12" y="25"/><rect x="13" y="25"/><rect x="14" y="25"/><rect x="15" y="25"/><rect x="16" y="25"/><rect x="17" y="25"/><rect x="18" y="25"/><rect x="19" y="25"/><rect x="20" y="25"/><rect x="21" y="25"/><rect x="22" y="25"/><rect x="23" y="25"/><rect x="24" y="25"/><rect x="25" y="25"/><rect x="6" y="26"/><rect x="7" y="26"/><rect x="24" y="26"/><rect x="25" y="26"/><rect x="6" y="27"/><rect x="7" y="27"/><rect x="24" y="27"/><rect x="25" y="27"/><rect x="6" y="28"/><rect x="7" y="28"/><rect x="24" y="28"/><rect x="25" y="28"/><rect x="6" y="29"/><rect x="7" y="29"/><rect x="8" y="29"/><rect x="9" y="29"/><rect x="10" y="29"/><rect x="11" y="29"/><rect x="12" y="29"/><rect x="13" y="29"/><rect x="14" y="29"/><rect x="15" y="29"/><rect x="16" y="29"/><rect x="17" y="29"/><rect x="18" y="29"/><rect x="19" y="29"/><rect x="20" y="29"/><rect x="21" y="29"/><rect x="22" y="29"/><rect x="23" y="29"/><rect x="24" y="29"/><rect x="25" y="29"/><rect x="6" y="30"/><rect x="7" y="30"/><rect x="8" y="30"/><rect x="9" y="30"/><rect x="10" y="30"/><rect x="11" y="30"/><rect x="12" y="30"/><rect x="13" y="30"/><rect x="14" y="30"/><rect x="15" y="30"/><rect x="16" y="30"/><rect x="17" y="30"/><rect x="18" y="30"/><rect x="19" y="30"/><rect x="20" y="30"/><rect x="21" y="30"/><rect x="22" y="30"/><rect x="23" y="30"/><rect x="24" y="30"/><rect x="25" y="30"/></svg>