<svg xmlns="http://www.w3.org/2000/svg" viewBox="0 0 32 32"><style>rect{width:1px;height:1px;fill:currentcolor}</style><rect x="11" y="4"/><rect x="12" y="4"/><rect x="19" y="4"/><rect x="20" y="4"/><rect x="11" y="5"/><rect x="12" y="5"/><rect x="19" y="5"/><rect x="20" y="5"/><rect x="11" y="6"/><rect x="12" y="6"/><rect x="19" y="6"/><rect x="20" y="6"/><rect x="11" y="7"/><rect x="12" y="7"/><rect x="19" y="7"/><rect x="20" y="7"/><rect x="5" y="8"/><rect x="6" y="8"/><rect x="11" y="8"/><rect x="12" y="8"/><rect x="19" y="8"/><rect x="20" y="8"/><rect x="25" y="8"/><rect x="26" y="8"/><rect x="5" y="9"/><rect x="6" y="9"/><rect x="11" y="9"/><rect x="12" y="9"/><rect x="19" y="9"/><rect x="20" y="9"/><rect x="25" y="9"/><rect x="26" y="9"/><rect x="5" y="10"/><rect x="6" y="10"/><rect x="11" y="10"/><rect x="12" y="10"/><rect x="19" y="10"/><rect x="20" y="10"/><rect x="25" y="10"/><rect x="26" y="10"/><rect x="5" y="11"/><rect x="6" y="11"/><rect x="11" y="11"/><rect x="12" y="11"/><rect x="19" y="11"/><rect x="20" y="11"/><rect x="25" y="11"/><rect x="26" y="11"/><rect x="5" y="12"/><rect x="6" y="12"/><rect x="11" y="12"/><rect x="12" y="12"/><rect x="19" y="12"/><rect x="20" y="12"/><rect x="25" y="12"/><rect x="26" y="12"/><rect x="5" y="13"/><rect x="6" y="13"/><rect x="11" y="13"/><rect x="12" y="13"/><rect x="19" y="13"/><rect x="20" y="13"/><rect x="25" y="13"/><rect x="26" y="13"/><rect x="5" y="14"/><rect x="6" y="14"/><rect x="11" y="14"/><rect x="12" y="14"/><rect x="19" y="14"/><rect x="20" y="14"/><rect x="25" y="14"/><rect x="26" y="14"/><rect x="27" y="14"/><rect x="4" y="15"/><rect x="5" y="15"/><rect x="6" y="15"/><rect x="11" y="15"/><rect x="12" y="15"/><rect x="19" y="15"/><rect x="20" y="15"/><rect x="26" y="15"/><rect x="27" y="15"/><rect x="4" y="16"/><rect x="5" y="16"/><rect x="11" y="16"/><rect x="12" y="16"/><rect x="19" y="16"/><rect x="20" y="16"/><rect x="26" y="16"/><rect x="27" y="16"/><rect x="4" y="17"/><rect x="5" y="17"/><rect x="11" y="17"/><rect x="12" y="17"/><rect x="19" y="17"/><rect x="20" y="17"/><rect x="26" y="17"/><rect x="27" y="17"/><rect x="4" y="18"/><rect x="5" y="18"/><rect x="11" y="18"/><rect x="12" y="18"/><rect x="19" y="18"/><rect x="20" y="18"/><rect x="26" y="18"/><rect x="27" y="18"/><rect x="28" y="18"/><rect x="4" y="19"/><rect x="5" y="19"/><rect x="11" y="19"/><rect x="12" y="19"/><rect x="19" y="19"/><rect x="20" y="19"/><rect x="27" y="19"/><rect x="28" y="19"/><rect x="3" y="20"/><rect x="4" y="20"/><rect x="11" y="20"/><rect x="12" y="20"/><rect x="19" y="20"/><rect x="20" y="20"/><rect x="28" y="20"/><rect x="29" y="20"/><rect x="2" y="21"/><rect x="3" y="21"/><rect x="11" y="21"/><rect x="12" y="21"/><rect x="19" y="21"/><rect x="20" y="21"/><rect x="28" y="21"/><rect x="29" y="21"/><rect x="11" y="22"/><rect x="12" y="22"/><rect x="19" y="22"/><rect x="20" y="22"/><rect x="10" y="23"/><rect x="11" y="23"/><rect x="12" y="23"/><rect x="19" y="23"/><rect x="20" y="23"/><rect x="10" y="24"/><rect x="11" y="24"/><rect x="19" y="24"/><rect x="20" y="24"/><rect x="10" y="25"/><rect x="11" y="25"/><rect x="19" y="25"/><rect x="20" y="25"/><rect x="9" y="26"/><rect x="10" y="26"/><rect x="19" y="26"/><rect x="20" y="26"/><rect x="9" y="27"/><rect x="10" y="27"/><rect x="17" y="27"/><rect x="18" y="27"/><rect x="19" y="27"/><rect x="20" y="27"/><rect x="8" y="28"/><rect x="9" y="28"/><rect x="17" y="28"/><rect x="18" y="28"/><rect x="19" y="28"/><rect x="20" y="28"/></svg>