<svg xmlns="http://www.w3.org/2000/svg" viewBox="0 0 32 32"><style>rect{width:1px;height:1px;fill:currentcolor}</style><rect x="2" y="2"/><rect x="3" y="2"/><rect x="4" y="2"/><rect x="5" y="2"/><rect x="6" y="2"/><rect x="7" y="2"/><rect x="8" y="2"/><rect x="9" y="2"/><rect x="10" y="2"/><rect x="11" y="2"/><rect x="12" y="2"/><rect x="13" y="2"/><rect x="14" y="2"/><rect x="15" y="2"/><rect x="16" y="2"/><rect x="19" y="2"/><rect x="20" y="2"/><rect x="21" y="2"/><rect x="22" y="2"/><rect x="23" y="2"/><rect x="24" y="2"/><rect x="25" y="2"/><rect x="26" y="2"/><rect x="27" y="2"/><rect x="28" y="2"/><rect x="29" y="2"/><rect x="2" y="3"/><rect x="3" y="3"/><rect x="4" y="3"/><rect x="5" y="3"/><rect x="6" y="3"/><rect x="7" y="3"/><rect x="8" y="3"/><rect x="9" y="3"/><rect x="10" y="3"/><rect x="11" y="3"/><rect x="12" y="3"/><rect x="13" y="3"/><rect x="14" y="3"/><rect x="15" y="3"/><rect x="16" y="3"/><rect x="19" y="3"/><rect x="20" y="3"/><rect x="21" y="3"/><rect x="22" y="3"/><rect x="23" y="3"/><rect x="24" y="3"/><rect x="25" y="3"/><rect x="26" y="3"/><rect x="27" y="3"/><rect x="28" y="3"/><rect x="29" y="3"/><rect x="19" y="4"/><rect x="20" y="4"/><rect x="28" y="4"/><rect x="29" y="4"/><rect x="19" y="5"/><rect x="20" y="5"/><rect x="28" y="5"/><rect x="29" y="5"/><rect x="3" y="6"/><rect x="4" y="6"/><rect x="5" y="6"/><rect x="6" y="6"/><rect x="7" y="6"/><rect x="8" y="6"/><rect x="9" y="6"/><rect x="10" y="6"/><rect x="11" y="6"/><rect x="12" y="6"/><rect x="13" y="6"/><rect x="14" y="6"/><rect x="15" y="6"/><rect x="19" y="6"/><rect x="20" y="6"/><rect x="28" y="6"/><rect x="29" y="6"/><rect x="3" y="7"/><rect x="4" y="7"/><rect x="5" y="7"/><rect x="6" y="7"/><rect x="7" y="7"/><rect x="8" y="7"/><rect x="9" y="7"/><rect x="10" y="7"/><rect x="11" y="7"/><rect x="12" y="7"/><rect x="13" y="7"/><rect x="14" y="7"/><rect x="15" y="7"/><rect x="19" y="7"/><rect x="20" y="7"/><rect x="28" y="7"/><rect x="29" y="7"/><rect x="3" y="8"/><rect x="4" y="8"/><rect x="14" y="8"/><rect x="15" y="8"/><rect x="19" y="8"/><rect x="20" y="8"/><rect x="28" y="8"/><rect x="29" y="8"/><rect x="3" y="9"/><rect x="4" y="9"/><rect x="14" y="9"/><rect x="15" y="9"/><rect x="19" y="9"/><rect x="20" y="9"/><rect x="28" y="9"/><rect x="29" y="9"/><rect x="3" y="10"/><rect x="4" y="10"/><rect x="14" y="10"/><rect x="15" y="10"/><rect x="19" y="10"/><rect x="20" y="10"/><rect x="21" y="10"/><rect x="22" y="10"/><rect x="23" y="10"/><rect x="24" y="10"/><rect x="25" y="10"/><rect x="26" y="10"/><rect x="27" y="10"/><rect x="28" y="10"/><rect x="29" y="10"/><rect x="3" y="11"/><rect x="4" y="11"/><rect x="5" y="11"/><rect x="6" y="11"/><rect x="7" y="11"/><rect x="8" y="11"/><rect x="9" y="11"/><rect x="10" y="11"/><rect x="11" y="11"/><rect x="12" y="11"/><rect x="13" y="11"/><rect x="14" y="11"/><rect x="15" y="11"/><rect x="19" y="11"/><rect x="20" y="11"/><rect x="21" y="11"/><rect x="22" y="11"/><rect x="23" y="11"/><rect x="24" y="11"/><rect x="25" y="11"/><rect x="26" y="11"/><rect x="27" y="11"/><rect x="28" y="11"/><rect x="29" y="11"/><rect x="3" y="12"/><rect x="4" y="12"/><rect x="5" y="12"/><rect x="6" y="12"/><rect x="7" y="12"/><rect x="8" y="12"/><rect x="9" y="12"/><rect x="10" y="12"/><rect x="11" y="12"/><rect x="12" y="12"/><rect x="13" y="12"/><rect x="14" y="12"/><rect x="15" y="12"/><rect x="19" y="12"/><rect x="20" y="12"/><rect x="28" y="12"/><rect x="29" y="12"/><rect x="3" y="13"/><rect x="4" y="13"/><rect x="14" y="13"/><rect x="15" y="13"/><rect x="19" y="13"/><rect x="20" y="13"/><rect x="28" y="13"/><rect x="29" y="13"/><rect x="3" y="14"/><rect x="4" y="14"/><rect x="14" y="14"/><rect x="15" y="14"/><rect x="19" y="14"/><rect x="20" y="14"/><rect x="28" y="14"/><rect x="29" y="14"/><rect x="3" y="15"/><rect x="4" y="15"/><rect x="14" y="15"/><rect x="15" y="15"/><rect x="19" y="15"/><rect x="20" y="15"/><rect x="28" y="15"/><rect x="29" y="15"/><rect x="3" y="16"/><rect x="4" y="16"/><rect x="5" y="16"/><rect x="6" y="16"/><rect x="7" y="16"/><rect x="8" y="16"/><rect x="9" y="16"/><rect x="10" y="16"/><rect x="11" y="16"/><rect x="12" y="16"/><rect x="13" y="16"/><rect x="14" y="16"/><rect x="15" y="16"/><rect x="19" y="16"/><rect x="20" y="16"/><rect x="28" y="16"/><rect x="29" y="16"/><rect x="3" y="17"/><rect x="4" y="17"/><rect x="5" y="17"/><rect x="6" y="17"/><rect x="7" y="17"/><rect x="8" y="17"/><rect x="9" y="17"/><rect x="10" y="17"/><rect x="11" y="17"/><rect x="12" y="17"/><rect x="13" y="17"/><rect x="14" y="17"/><rect x="15" y="17"/><rect x="19" y="17"/><rect x="20" y="17"/><rect x="28" y="17"/><rect x="29" y="17"/><rect x="3" y="18"/><rect x="4" y="18"/><rect x="19" y="18"/><rect x="20" y="18"/><rect x="21" y="18"/><rect x="22" y="18"/><rect x="23" y="18"/><rect x="24" y="18"/><rect x="25" y="18"/><rect x="26" y="18"/><rect x="27" y="18"/><rect x="28" y="18"/><rect x="29" y="18"/><rect x="3" y="19"/><rect x="4" y="19"/><rect x="19" y="19"/><rect x="20" y="19"/><rect x="21" y="19"/><rect x="22" y="19"/><rect x="23" y="19"/><rect x="24" y="19"/><rect x="25" y="19"/><rect x="26" y="19"/><rect x="27" y="19"/><rect x="28" y="19"/><rect x="29" y="19"/><rect x="3" y="20"/><rect x="4" y="20"/><rect x="7" y="20"/><rect x="8" y="20"/><rect x="14" y="20"/><rect x="15" y="20"/><rect x="19" y="20"/><rect x="20" y="20"/><rect x="28" y="20"/><rect x="29" y="20"/><rect x="3" y="21"/><rect x="4" y="21"/><rect x="7" y="21"/><rect x="8" y="21"/><rect x="9" y="21"/><rect x="13" y="21"/><rect x="14" y="21"/><rect x="19" y="21"/><rect x="20" y="21"/><rect x="28" y="21"/><rect x="29" y="21"/><rect x="3" y="22"/><rect x="4" y="22"/><rect x="8" y="22"/><rect x="9" y="22"/><rect x="10" y="22"/><rect x="12" y="22"/><rect x="13" y="22"/><rect x="19" y="22"/><rect x="20" y="22"/><rect x="28" y="22"/><rect x="29" y="22"/><rect x="3" y="23"/><rect x="4" y="23"/><rect x="9" y="23"/><rect x="10" y="23"/><rect x="11" y="23"/><rect x="12" y="23"/><rect x="19" y="23"/><rect x="20" y="23"/><rect x="28" y="23"/><rect x="29" y="23"/><rect x="3" y="24"/><rect x="4" y="24"/><rect x="9" y="24"/><rect x="10" y="24"/><rect x="11" y="24"/><rect x="19" y="24"/><rect x="20" y="24"/><rect x="28" y="24"/><rect x="29" y="24"/><rect x="3" y="25"/><rect x="4" y="25"/><rect x="7" y="25"/><rect x="8" y="25"/><rect x="9" y="25"/><rect x="10" y="25"/><rect x="11" y="25"/><rect x="12" y="25"/><rect x="19" y="25"/><rect x="20" y="25"/><rect x="28" y="25"/><rect x="29" y="25"/><rect x="3" y="26"/><rect x="4" y="26"/><rect x="5" y="26"/><rect x="6" y="26"/><rect x="7" y="26"/><rect x="12" y="26"/><rect x="13" y="26"/><rect x="18" y="26"/><rect x="19" y="26"/><rect x="20" y="26"/><rect x="28" y="26"/><rect x="29" y="26"/><rect x="3" y="27"/><rect x="4" y="27"/><rect x="5" y="27"/><rect x="6" y="27"/><rect x="12" y="27"/><rect x="13" y="27"/><rect x="18" y="27"/><rect x="19" y="27"/><rect x="28" y="27"/><rect x="29" y="27"/><rect x="3" y="28"/><rect x="4" y="28"/><rect x="17" y="28"/><rect x="18" y="28"/><rect x="19" y="28"/><rect x="26" y="28"/><rect x="27" y="28"/><rect x="28" y="28"/><rect x="29" y="28"/><rect x="16" y="29"/><rect x="17" y="29"/><rect x="18" y="29"/><rect x="26" y="29"/><rect x="27" y="29"/><rect x="28" y="29"/><rect x="29" y="29"/></svg>