<svg xmlns="http://www.w3.org/2000/svg" viewBox="0 0 32 32"><style>rect{width:1px;height:1px;fill:currentcolor}</style><rect x="15" y="1"/><rect x="16" y="1"/><rect x="15" y="2"/><rect x="16" y="2"/><rect x="5" y="3"/><rect x="6" y="3"/><rect x="7" y="3"/><rect x="8" y="3"/><rect x="9" y="3"/><rect x="10" y="3"/><rect x="11" y="3"/><rect x="12" y="3"/><rect x="13" y="3"/><rect x="14" y="3"/><rect x="15" y="3"/><rect x="16" y="3"/><rect x="17" y="3"/><rect x="18" y="3"/><rect x="19" y="3"/><rect x="20" y="3"/><rect x="21" y="3"/><rect x="22" y="3"/><rect x="23" y="3"/><rect x="24" y="3"/><rect x="25" y="3"/><rect x="26" y="3"/><rect x="5" y="4"/><rect x="6" y="4"/><rect x="7" y="4"/><rect x="8" y="4"/><rect x="9" y="4"/><rect x="10" y="4"/><rect x="11" y="4"/><rect x="12" y="4"/><rect x="13" y="4"/><rect x="14" y="4"/><rect x="15" y="4"/><rect x="16" y="4"/><rect x="17" y="4"/><rect x="18" y="4"/><rect x="19" y="4"/><rect x="20" y="4"/><rect x="21" y="4"/><rect x="22" y="4"/><rect x="23" y="4"/><rect x="24" y="4"/><rect x="25" y="4"/><rect x="26" y="4"/><rect x="9" y="5"/><rect x="10" y="5"/><rect x="21" y="5"/><rect x="22" y="5"/><rect x="9" y="6"/><rect x="10" y="6"/><rect x="21" y="6"/><rect x="22" y="6"/><rect x="9" y="7"/><rect x="10" y="7"/><rect x="11" y="7"/><rect x="12" y="7"/><rect x="13" y="7"/><rect x="14" y="7"/><rect x="15" y="7"/><rect x="16" y="7"/><rect x="17" y="7"/><rect x="18" y="7"/><rect x="19" y="7"/><rect x="20" y="7"/><rect x="21" y="7"/><rect x="22" y="7"/><rect x="9" y="8"/><rect x="10" y="8"/><rect x="11" y="8"/><rect x="12" y="8"/><rect x="13" y="8"/><rect x="14" y="8"/><rect x="15" y="8"/><rect x="16" y="8"/><rect x="17" y="8"/><rect x="18" y="8"/><rect x="19" y="8"/><rect x="20" y="8"/><rect x="21" y="8"/><rect x="22" y="8"/><rect x="9" y="9"/><rect x="10" y="9"/><rect x="21" y="9"/><rect x="22" y="9"/><rect x="9" y="10"/><rect x="10" y="10"/><rect x="21" y="10"/><rect x="22" y="10"/><rect x="9" y="11"/><rect x="10" y="11"/><rect x="11" y="11"/><rect x="12" y="11"/><rect x="13" y="11"/><rect x="14" y="11"/><rect x="15" y="11"/><rect x="16" y="11"/><rect x="17" y="11"/><rect x="18" y="11"/><rect x="19" y="11"/><rect x="20" y="11"/><rect x="21" y="11"/><rect x="22" y="11"/><rect x="9" y="12"/><rect x="10" y="12"/><rect x="11" y="12"/><rect x="12" y="12"/><rect x="13" y="12"/><rect x="14" y="12"/><rect x="15" y="12"/><rect x="16" y="12"/><rect x="17" y="12"/><rect x="18" y="12"/><rect x="19" y="12"/><rect x="20" y="12"/><rect x="21" y="12"/><rect x="22" y="12"/><rect x="9" y="13"/><rect x="10" y="13"/><rect x="21" y="13"/><rect x="22" y="13"/><rect x="9" y="14"/><rect x="10" y="14"/><rect x="21" y="14"/><rect x="22" y="14"/><rect x="3" y="15"/><rect x="4" y="15"/><rect x="5" y="15"/><rect x="6" y="15"/><rect x="7" y="15"/><rect x="8" y="15"/><rect x="9" y="15"/><rect x="10" y="15"/><rect x="11" y="15"/><rect x="12" y="15"/><rect x="13" y="15"/><rect x="14" y="15"/><rect x="15" y="15"/><rect x="16" y="15"/><rect x="17" y="15"/><rect x="18" y="15"/><rect x="19" y="15"/><rect x="20" y="15"/><rect x="21" y="15"/><rect x="22" y="15"/><rect x="23" y="15"/><rect x="24" y="15"/><rect x="25" y="15"/><rect x="26" y="15"/><rect x="27" y="15"/><rect x="28" y="15"/><rect x="3" y="16"/><rect x="4" y="16"/><rect x="5" y="16"/><rect x="6" y="16"/><rect x="7" y="16"/><rect x="8" y="16"/><rect x="9" y="16"/><rect x="10" y="16"/><rect x="11" y="16"/><rect x="12" y="16"/><rect x="13" y="16"/><rect x="14" y="16"/><rect x="15" y="16"/><rect x="16" y="16"/><rect x="17" y="16"/><rect x="18" y="16"/><rect x="19" y="16"/><rect x="20" y="16"/><rect x="21" y="16"/><rect x="22" y="16"/><rect x="23" y="16"/><rect x="24" y="16"/><rect x="25" y="16"/><rect x="26" y="16"/><rect x="27" y="16"/><rect x="28" y="16"/><rect x="10" y="19"/><rect x="11" y="19"/><rect x="12" y="19"/><rect x="13" y="19"/><rect x="14" y="19"/><rect x="15" y="19"/><rect x="16" y="19"/><rect x="17" y="19"/><rect x="18" y="19"/><rect x="19" y="19"/><rect x="20" y="19"/><rect x="21" y="19"/><rect x="10" y="20"/><rect x="11" y="20"/><rect x="12" y="20"/><rect x="13" y="20"/><rect x="14" y="20"/><rect x="15" y="20"/><rect x="16" y="20"/><rect x="17" y="20"/><rect x="18" y="20"/><rect x="19" y="20"/><rect x="20" y="20"/><rect x="21" y="20"/><rect x="19" y="21"/><rect x="20" y="21"/><rect x="21" y="21"/><rect x="18" y="22"/><rect x="19" y="22"/><rect x="20" y="22"/><rect x="17" y="23"/><rect x="18" y="23"/><rect x="19" y="23"/><rect x="16" y="24"/><rect x="17" y="24"/><rect x="18" y="24"/><rect x="19" y="24"/><rect x="15" y="25"/><rect x="16" y="25"/><rect x="17" y="25"/><rect x="18" y="25"/><rect x="19" y="25"/><rect x="18" y="26"/><rect x="19" y="26"/><rect x="20" y="26"/><rect x="19" y="27"/><rect x="20" y="27"/><rect x="21" y="27"/><rect x="14" y="28"/><rect x="19" y="28"/><rect x="20" y="28"/><rect x="21" y="28"/><rect x="13" y="29"/><rect x="14" y="29"/><rect x="15" y="29"/><rect x="16" y="29"/><rect x="17" y="29"/><rect x="18" y="29"/><rect x="19" y="29"/><rect x="20" y="29"/><rect x="14" y="30"/><rect x="15" y="30"/><rect x="16" y="30"/><rect x="17" y="30"/><rect x="18" y="30"/><rect x="19" y="30"/></svg>