<svg xmlns="http://www.w3.org/2000/svg" viewBox="0 0 32 32"><style>rect{width:1px;height:1px;fill:currentcolor}</style><rect x="26" y="4"/><rect x="27" y="4"/><rect x="26" y="5"/><rect x="27" y="5"/><rect x="26" y="6"/><rect x="27" y="6"/><rect x="26" y="7"/><rect x="27" y="7"/><rect x="25" y="8"/><rect x="26" y="8"/><rect x="25" y="9"/><rect x="26" y="9"/><rect x="25" y="10"/><rect x="26" y="10"/><rect x="24" y="11"/><rect x="25" y="11"/><rect x="23" y="12"/><rect x="24" y="12"/><rect x="25" y="12"/><rect x="22" y="13"/><rect x="23" y="13"/><rect x="24" y="13"/><rect x="13" y="14"/><rect x="14" y="14"/><rect x="21" y="14"/><rect x="22" y="14"/><rect x="23" y="14"/><rect x="13" y="15"/><rect x="14" y="15"/><rect x="15" y="15"/><rect x="20" y="15"/><rect x="21" y="15"/><rect x="22" y="15"/><rect x="14" y="16"/><rect x="15" y="16"/><rect x="16" y="16"/><rect x="19" y="16"/><rect x="20" y="16"/><rect x="21" y="16"/><rect x="15" y="17"/><rect x="16" y="17"/><rect x="17" y="17"/><rect x="18" y="17"/><rect x="19" y="17"/><rect x="20" y="17"/><rect x="16" y="18"/><rect x="17" y="18"/><rect x="18" y="18"/><rect x="19" y="18"/><rect x="16" y="19"/><rect x="17" y="19"/><rect x="18" y="19"/><rect x="15" y="20"/><rect x="16" y="20"/><rect x="17" y="20"/><rect x="14" y="21"/><rect x="15" y="21"/><rect x="16" y="21"/><rect x="14" y="22"/><rect x="15" y="22"/><rect x="12" y="23"/><rect x="13" y="23"/><rect x="14" y="23"/><rect x="11" y="24"/><rect x="12" y="24"/><rect x="13" y="24"/><rect x="4" y="25"/><rect x="5" y="25"/><rect x="9" y="25"/><rect x="10" y="25"/><rect x="11" y="25"/><rect x="12" y="25"/><rect x="5" y="26"/><rect x="6" y="26"/><rect x="7" y="26"/><rect x="8" y="26"/><rect x="9" y="26"/><rect x="10" y="26"/><rect x="5" y="27"/><rect x="6" y="27"/><rect x="7" y="27"/><rect x="8" y="27"/><rect x="6" y="28"/></svg>