<svg xmlns="http://www.w3.org/2000/svg" viewBox="0 0 32 32"><style>rect{width:1px;height:1px;fill:currentcolor}</style><rect x="11" y="4"/><rect x="12" y="4"/><rect x="12" y="5"/><rect x="13" y="5"/><rect x="12" y="6"/><rect x="13" y="6"/><rect x="12" y="7"/><rect x="13" y="7"/><rect x="17" y="7"/><rect x="18" y="7"/><rect x="19" y="7"/><rect x="20" y="7"/><rect x="11" y="8"/><rect x="12" y="8"/><rect x="15" y="8"/><rect x="16" y="8"/><rect x="17" y="8"/><rect x="18" y="8"/><rect x="19" y="8"/><rect x="20" y="8"/><rect x="21" y="8"/><rect x="11" y="9"/><rect x="12" y="9"/><rect x="14" y="9"/><rect x="15" y="9"/><rect x="16" y="9"/><rect x="17" y="9"/><rect x="20" y="9"/><rect x="21" y="9"/><rect x="22" y="9"/><rect x="11" y="10"/><rect x="12" y="10"/><rect x="13" y="10"/><rect x="14" y="10"/><rect x="21" y="10"/><rect x="22" y="10"/><rect x="11" y="11"/><rect x="12" y="11"/><rect x="13" y="11"/><rect x="21" y="11"/><rect x="22" y="11"/><rect x="11" y="12"/><rect x="12" y="12"/><rect x="21" y="12"/><rect x="22" y="12"/><rect x="11" y="13"/><rect x="12" y="13"/><rect x="21" y="13"/><rect x="22" y="13"/><rect x="11" y="14"/><rect x="12" y="14"/><rect x="21" y="14"/><rect x="22" y="14"/><rect x="11" y="15"/><rect x="12" y="15"/><rect x="21" y="15"/><rect x="22" y="15"/><rect x="11" y="16"/><rect x="12" y="16"/><rect x="21" y="16"/><rect x="22" y="16"/><rect x="11" y="17"/><rect x="12" y="17"/><rect x="21" y="17"/><rect x="22" y="17"/><rect x="12" y="18"/><rect x="13" y="18"/><rect x="21" y="18"/><rect x="22" y="18"/><rect x="12" y="19"/><rect x="13" y="19"/><rect x="21" y="19"/><rect x="22" y="19"/><rect x="20" y="20"/><rect x="21" y="20"/><rect x="20" y="21"/><rect x="21" y="21"/><rect x="20" y="22"/><rect x="21" y="22"/><rect x="20" y="23"/><rect x="21" y="23"/><rect x="19" y="24"/><rect x="20" y="24"/><rect x="18" y="25"/><rect x="19" y="25"/><rect x="17" y="26"/><rect x="18" y="26"/><rect x="16" y="27"/><rect x="17" y="27"/></svg>