<svg xmlns="http://www.w3.org/2000/svg" viewBox="0 0 32 32"><style>rect{width:1px;height:1px;fill:currentcolor}</style><rect x="6" y="2"/><rect x="7" y="2"/><rect x="8" y="2"/><rect x="9" y="2"/><rect x="10" y="2"/><rect x="11" y="2"/><rect x="12" y="2"/><rect x="13" y="2"/><rect x="14" y="2"/><rect x="15" y="2"/><rect x="16" y="2"/><rect x="17" y="2"/><rect x="18" y="2"/><rect x="19" y="2"/><rect x="20" y="2"/><rect x="21" y="2"/><rect x="22" y="2"/><rect x="23" y="2"/><rect x="24" y="2"/><rect x="25" y="2"/><rect x="6" y="3"/><rect x="7" y="3"/><rect x="8" y="3"/><rect x="9" y="3"/><rect x="10" y="3"/><rect x="11" y="3"/><rect x="12" y="3"/><rect x="13" y="3"/><rect x="14" y="3"/><rect x="15" y="3"/><rect x="16" y="3"/><rect x="17" y="3"/><rect x="18" y="3"/><rect x="19" y="3"/><rect x="20" y="3"/><rect x="21" y="3"/><rect x="22" y="3"/><rect x="23" y="3"/><rect x="24" y="3"/><rect x="25" y="3"/><rect x="6" y="4"/><rect x="7" y="4"/><rect x="24" y="4"/><rect x="25" y="4"/><rect x="6" y="5"/><rect x="7" y="5"/><rect x="24" y="5"/><rect x="25" y="5"/><rect x="6" y="6"/><rect x="7" y="6"/><rect x="24" y="6"/><rect x="25" y="6"/><rect x="6" y="7"/><rect x="7" y="7"/><rect x="8" y="7"/><rect x="9" y="7"/><rect x="10" y="7"/><rect x="11" y="7"/><rect x="12" y="7"/><rect x="13" y="7"/><rect x="14" y="7"/><rect x="15" y="7"/><rect x="16" y="7"/><rect x="17" y="7"/><rect x="18" y="7"/><rect x="19" y="7"/><rect x="20" y="7"/><rect x="21" y="7"/><rect x="22" y="7"/><rect x="23" y="7"/><rect x="24" y="7"/><rect x="25" y="7"/><rect x="6" y="8"/><rect x="7" y="8"/><rect x="8" y="8"/><rect x="9" y="8"/><rect x="10" y="8"/><rect x="11" y="8"/><rect x="12" y="8"/><rect x="13" y="8"/><rect x="14" y="8"/><rect x="15" y="8"/><rect x="16" y="8"/><rect x="17" y="8"/><rect x="18" y="8"/><rect x="19" y="8"/><rect x="20" y="8"/><rect x="21" y="8"/><rect x="22" y="8"/><rect x="23" y="8"/><rect x="24" y="8"/><rect x="25" y="8"/><rect x="6" y="9"/><rect x="7" y="9"/><rect x="24" y="9"/><rect x="25" y="9"/><rect x="6" y="10"/><rect x="7" y="10"/><rect x="24" y="10"/><rect x="25" y="10"/><rect x="6" y="11"/><rect x="7" y="11"/><rect x="24" y="11"/><rect x="25" y="11"/><rect x="6" y="12"/><rect x="7" y="12"/><rect x="8" y="12"/><rect x="9" y="12"/><rect x="10" y="12"/><rect x="11" y="12"/><rect x="12" y="12"/><rect x="13" y="12"/><rect x="14" y="12"/><rect x="15" y="12"/><rect x="16" y="12"/><rect x="17" y="12"/><rect x="18" y="12"/><rect x="19" y="12"/><rect x="20" y="12"/><rect x="21" y="12"/><rect x="22" y="12"/><rect x="23" y="12"/><rect x="24" y="12"/><rect x="25" y="12"/><rect x="6" y="13"/><rect x="7" y="13"/><rect x="8" y="13"/><rect x="9" y="13"/><rect x="10" y="13"/><rect x="11" y="13"/><rect x="12" y="13"/><rect x="13" y="13"/><rect x="14" y="13"/><rect x="15" y="13"/><rect x="16" y="13"/><rect x="17" y="13"/><rect x="18" y="13"/><rect x="19" y="13"/><rect x="20" y="13"/><rect x="21" y="13"/><rect x="22" y="13"/><rect x="23" y="13"/><rect x="24" y="13"/><rect x="25" y="13"/><rect x="14" y="14"/><rect x="15" y="14"/><rect x="13" y="15"/><rect x="14" y="15"/><rect x="12" y="16"/><rect x="13" y="16"/><rect x="11" y="17"/><rect x="12" y="17"/><rect x="3" y="18"/><rect x="4" y="18"/><rect x="5" y="18"/><rect x="6" y="18"/><rect x="7" y="18"/><rect x="8" y="18"/><rect x="9" y="18"/><rect x="10" y="18"/><rect x="11" y="18"/><rect x="12" y="18"/><rect x="13" y="18"/><rect x="14" y="18"/><rect x="15" y="18"/><rect x="16" y="18"/><rect x="17" y="18"/><rect x="18" y="18"/><rect x="19" y="18"/><rect x="20" y="18"/><rect x="21" y="18"/><rect x="22" y="18"/><rect x="23" y="18"/><rect x="24" y="18"/><rect x="25" y="18"/><rect x="26" y="18"/><rect x="27" y="18"/><rect x="28" y="18"/><rect x="3" y="19"/><rect x="4" y="19"/><rect x="5" y="19"/><rect x="6" y="19"/><rect x="7" y="19"/><rect x="8" y="19"/><rect x="9" y="19"/><rect x="10" y="19"/><rect x="11" y="19"/><rect x="12" y="19"/><rect x="13" y="19"/><rect x="14" y="19"/><rect x="15" y="19"/><rect x="16" y="19"/><rect x="17" y="19"/><rect x="18" y="19"/><rect x="19" y="19"/><rect x="20" y="19"/><rect x="21" y="19"/><rect x="22" y="19"/><rect x="23" y="19"/><rect x="24" y="19"/><rect x="25" y="19"/><rect x="26" y="19"/><rect x="27" y="19"/><rect x="28" y="19"/><rect x="3" y="20"/><rect x="4" y="20"/><rect x="27" y="20"/><rect x="28" y="20"/><rect x="3" y="21"/><rect x="4" y="21"/><rect x="27" y="21"/><rect x="28" y="21"/><rect x="3" y="22"/><rect x="4" y="22"/><rect x="27" y="22"/><rect x="28" y="22"/><rect x="3" y="23"/><rect x="4" y="23"/><rect x="5" y="23"/><rect x="6" y="23"/><rect x="7" y="23"/><rect x="8" y="23"/><rect x="9" y="23"/><rect x="10" y="23"/><rect x="11" y="23"/><rect x="12" y="23"/><rect x="13" y="23"/><rect x="14" y="23"/><rect x="15" y="23"/><rect x="16" y="23"/><rect x="17" y="23"/><rect x="18" y="23"/><rect x="19" y="23"/><rect x="20" y="23"/><rect x="21" y="23"/><rect x="22" y="23"/><rect x="23" y="23"/><rect x="24" y="23"/><rect x="25" y="23"/><rect x="26" y="23"/><rect x="27" y="23"/><rect x="28" y="23"/><rect x="3" y="24"/><rect x="4" y="24"/><rect x="5" y="24"/><rect x="6" y="24"/><rect x="7" y="24"/><rect x="8" y="24"/><rect x="9" y="24"/><rect x="10" y="24"/><rect x="11" y="24"/><rect x="12" y="24"/><rect x="13" y="24"/><rect x="14" y="24"/><rect x="15" y="24"/><rect x="16" y="24"/><rect x="17" y="24"/><rect x="18" y="24"/><rect x="19" y="24"/><rect x="20" y="24"/><rect x="21" y="24"/><rect x="22" y="24"/><rect x="23" y="24"/><rect x="24" y="24"/><rect x="25" y="24"/><rect x="26" y="24"/><rect x="27" y="24"/><rect x="28" y="24"/><rect x="3" y="25"/><rect x="4" y="25"/><rect x="27" y="25"/><rect x="28" y="25"/><rect x="3" y="26"/><rect x="4" y="26"/><rect x="27" y="26"/><rect x="28" y="26"/><rect x="3" y="27"/><rect x="4" y="27"/><rect x="27" y="27"/><rect x="28" y="27"/><rect x="3" y="28"/><rect x="4" y="28"/><rect x="5" y="28"/><rect x="6" y="28"/><rect x="7" y="28"/><rect x="8" y="28"/><rect x="9" y="28"/><rect x="10" y="28"/><rect x="11" y="28"/><rect x="12" y="28"/><rect x="13" y="28"/><rect x="14" y="28"/><rect x="15" y="28"/><rect x="16" y="28"/><rect x="17" y="28"/><rect x="18" y="28"/><rect x="19" y="28"/><rect x="20" y="28"/><rect x="21" y="28"/><rect x="22" y="28"/><rect x="23" y="28"/><rect x="24" y="28"/><rect x="25" y="28"/><rect x="26" y="28"/><rect x="27" y="28"/><rect x="28" y="28"/><rect x="3" y="29"/><rect x="4" y="29"/><rect x="5" y="29"/><rect x="6" y="29"/><rect x="7" y="29"/><rect x="8" y="29"/><rect x="9" y="29"/><rect x="10" y="29"/><rect x="11" y="29"/><rect x="12" y="29"/><rect x="13" y="29"/><rect x="14" y="29"/><rect x="15" y="29"/><rect x="16" y="29"/><rect x="17" y="29"/><rect x="18" y="29"/><rect x="19" y="29"/><rect x="20" y="29"/><rect x="21" y="29"/><rect x="22" y="29"/><rect x="23" y="29"/><rect x="24" y="29"/><rect x="25" y="29"/><rect x="26" y="29"/><rect x="27" y="29"/><rect x="28" y="29"/></svg>