<svg xmlns="http://www.w3.org/2000/svg" viewBox="0 0 32 32"><style>rect{width:1px;height:1px;fill:currentcolor}</style><rect x="19" y="4"/><rect x="20" y="4"/><rect x="21" y="4"/><rect x="22" y="4"/><rect x="23" y="4"/><rect x="18" y="5"/><rect x="19" y="5"/><rect x="20" y="5"/><rect x="21" y="5"/><rect x="22" y="5"/><rect x="23" y="5"/><rect x="24" y="5"/><rect x="7" y="6"/><rect x="8" y="6"/><rect x="9" y="6"/><rect x="10" y="6"/><rect x="11" y="6"/><rect x="12" y="6"/><rect x="13" y="6"/><rect x="14" y="6"/><rect x="15" y="6"/><rect x="16" y="6"/><rect x="17" y="6"/><rect x="18" y="6"/><rect x="19" y="6"/><rect x="23" y="6"/><rect x="24" y="6"/><rect x="7" y="7"/><rect x="8" y="7"/><rect x="9" y="7"/><rect x="10" y="7"/><rect x="11" y="7"/><rect x="12" y="7"/><rect x="13" y="7"/><rect x="14" y="7"/><rect x="15" y="7"/><rect x="16" y="7"/><rect x="17" y="7"/><rect x="23" y="7"/><rect x="24" y="7"/><rect x="16" y="8"/><rect x="17" y="8"/><rect x="16" y="9"/><rect x="17" y="9"/><rect x="15" y="10"/><rect x="16" y="10"/><rect x="25" y="10"/><rect x="26" y="10"/><rect x="15" y="11"/><rect x="16" y="11"/><rect x="25" y="11"/><rect x="26" y="11"/><rect x="27" y="11"/><rect x="15" y="12"/><rect x="16" y="12"/><rect x="26" y="12"/><rect x="27" y="12"/><rect x="6" y="13"/><rect x="7" y="13"/><rect x="8" y="13"/><rect x="9" y="13"/><rect x="10" y="13"/><rect x="11" y="13"/><rect x="12" y="13"/><rect x="13" y="13"/><rect x="14" y="13"/><rect x="15" y="13"/><rect x="16" y="13"/><rect x="27" y="13"/><rect x="6" y="14"/><rect x="7" y="14"/><rect x="8" y="14"/><rect x="9" y="14"/><rect x="10" y="14"/><rect x="11" y="14"/><rect x="12" y="14"/><rect x="13" y="14"/><rect x="14" y="14"/><rect x="15" y="14"/><rect x="16" y="14"/><rect x="27" y="14"/><rect x="28" y="14"/><rect x="16" y="15"/><rect x="17" y="15"/><rect x="27" y="15"/><rect x="28" y="15"/><rect x="16" y="16"/><rect x="17" y="16"/><rect x="26" y="16"/><rect x="27" y="16"/><rect x="16" y="17"/><rect x="17" y="17"/><rect x="26" y="17"/><rect x="27" y="17"/><rect x="17" y="18"/><rect x="18" y="18"/><rect x="25" y="18"/><rect x="26" y="18"/><rect x="17" y="19"/><rect x="18" y="19"/><rect x="25" y="19"/><rect x="26" y="19"/><rect x="17" y="20"/><rect x="18" y="20"/><rect x="24" y="20"/><rect x="25" y="20"/><rect x="18" y="21"/><rect x="19" y="21"/><rect x="20" y="21"/><rect x="21" y="21"/><rect x="22" y="21"/><rect x="23" y="21"/><rect x="24" y="21"/><rect x="18" y="22"/><rect x="19" y="22"/><rect x="20" y="22"/><rect x="21" y="22"/><rect x="22" y="22"/><rect x="23" y="22"/><rect x="4" y="23"/><rect x="5" y="23"/><rect x="6" y="23"/><rect x="7" y="23"/><rect x="8" y="23"/><rect x="9" y="23"/><rect x="10" y="23"/><rect x="11" y="23"/><rect x="12" y="23"/><rect x="13" y="23"/><rect x="14" y="23"/><rect x="15" y="23"/><rect x="16" y="23"/><rect x="17" y="23"/><rect x="18" y="23"/><rect x="19" y="23"/><rect x="20" y="23"/><rect x="21" y="23"/><rect x="22" y="23"/><rect x="23" y="23"/><rect x="24" y="23"/><rect x="25" y="23"/><rect x="26" y="23"/><rect x="27" y="23"/><rect x="4" y="24"/><rect x="5" y="24"/><rect x="6" y="24"/><rect x="7" y="24"/><rect x="8" y="24"/><rect x="9" y="24"/><rect x="10" y="24"/><rect x="11" y="24"/><rect x="12" y="24"/><rect x="13" y="24"/><rect x="14" y="24"/><rect x="15" y="24"/><rect x="16" y="24"/><rect x="17" y="24"/><rect x="18" y="24"/><rect x="19" y="24"/><rect x="20" y="24"/><rect x="21" y="24"/><rect x="22" y="24"/><rect x="23" y="24"/><rect x="24" y="24"/><rect x="25" y="24"/><rect x="26" y="24"/><rect x="27" y="24"/></svg>