<svg xmlns="http://www.w3.org/2000/svg" viewBox="0 0 32 32"><style>rect{width:1px;height:1px;fill:currentcolor}</style><rect x="11" y="2"/><rect x="12" y="2"/><rect x="19" y="2"/><rect x="20" y="2"/><rect x="11" y="3"/><rect x="12" y="3"/><rect x="19" y="3"/><rect x="20" y="3"/><rect x="10" y="4"/><rect x="11" y="4"/><rect x="18" y="4"/><rect x="19" y="4"/><rect x="9" y="5"/><rect x="10" y="5"/><rect x="17" y="5"/><rect x="18" y="5"/><rect x="22" y="5"/><rect x="23" y="5"/><rect x="8" y="6"/><rect x="9" y="6"/><rect x="16" y="6"/><rect x="17" y="6"/><rect x="22" y="6"/><rect x="23" y="6"/><rect x="6" y="7"/><rect x="7" y="7"/><rect x="8" y="7"/><rect x="9" y="7"/><rect x="15" y="7"/><rect x="16" y="7"/><rect x="21" y="7"/><rect x="22" y="7"/><rect x="4" y="8"/><rect x="5" y="8"/><rect x="6" y="8"/><rect x="7" y="8"/><rect x="11" y="8"/><rect x="12" y="8"/><rect x="15" y="8"/><rect x="16" y="8"/><rect x="17" y="8"/><rect x="18" y="8"/><rect x="20" y="8"/><rect x="21" y="8"/><rect x="2" y="9"/><rect x="3" y="9"/><rect x="4" y="9"/><rect x="5" y="9"/><rect x="11" y="9"/><rect x="12" y="9"/><rect x="17" y="9"/><rect x="18" y="9"/><rect x="19" y="9"/><rect x="20" y="9"/><rect x="2" y="10"/><rect x="3" y="10"/><rect x="10" y="10"/><rect x="11" y="10"/><rect x="18" y="10"/><rect x="19" y="10"/><rect x="24" y="10"/><rect x="25" y="10"/><rect x="9" y="11"/><rect x="10" y="11"/><rect x="17" y="11"/><rect x="18" y="11"/><rect x="24" y="11"/><rect x="25" y="11"/><rect x="8" y="12"/><rect x="9" y="12"/><rect x="10" y="12"/><rect x="16" y="12"/><rect x="17" y="12"/><rect x="23" y="12"/><rect x="24" y="12"/><rect x="6" y="13"/><rect x="7" y="13"/><rect x="8" y="13"/><rect x="9" y="13"/><rect x="14" y="13"/><rect x="15" y="13"/><rect x="16" y="13"/><rect x="17" y="13"/><rect x="22" y="13"/><rect x="23" y="13"/><rect x="24" y="13"/><rect x="4" y="14"/><rect x="5" y="14"/><rect x="6" y="14"/><rect x="7" y="14"/><rect x="8" y="14"/><rect x="9" y="14"/><rect x="14" y="14"/><rect x="15" y="14"/><rect x="16" y="14"/><rect x="17" y="14"/><rect x="18" y="14"/><rect x="19" y="14"/><rect x="21" y="14"/><rect x="22" y="14"/><rect x="23" y="14"/><rect x="2" y="15"/><rect x="3" y="15"/><rect x="4" y="15"/><rect x="5" y="15"/><rect x="8" y="15"/><rect x="9" y="15"/><rect x="18" y="15"/><rect x="19" y="15"/><rect x="20" y="15"/><rect x="21" y="15"/><rect x="22" y="15"/><rect x="2" y="16"/><rect x="3" y="16"/><rect x="8" y="16"/><rect x="9" y="16"/><rect x="20" y="16"/><rect x="21" y="16"/><rect x="8" y="17"/><rect x="9" y="17"/><rect x="19" y="17"/><rect x="20" y="17"/><rect x="21" y="17"/><rect x="22" y="17"/><rect x="23" y="17"/><rect x="24" y="17"/><rect x="25" y="17"/><rect x="26" y="17"/><rect x="8" y="18"/><rect x="9" y="18"/><rect x="15" y="18"/><rect x="18" y="18"/><rect x="19" y="18"/><rect x="20" y="18"/><rect x="21" y="18"/><rect x="22" y="18"/><rect x="23" y="18"/><rect x="24" y="18"/><rect x="25" y="18"/><rect x="26" y="18"/><rect x="8" y="19"/><rect x="9" y="19"/><rect x="15" y="19"/><rect x="16" y="19"/><rect x="18" y="19"/><rect x="19" y="19"/><rect x="25" y="19"/><rect x="26" y="19"/><rect x="8" y="20"/><rect x="9" y="20"/><rect x="16" y="20"/><rect x="17" y="20"/><rect x="18" y="20"/><rect x="25" y="20"/><rect x="26" y="20"/><rect x="8" y="21"/><rect x="9" y="21"/><rect x="16" y="21"/><rect x="17" y="21"/><rect x="18" y="21"/><rect x="24" y="21"/><rect x="25" y="21"/><rect x="8" y="22"/><rect x="9" y="22"/><rect x="15" y="22"/><rect x="16" y="22"/><rect x="18" y="22"/><rect x="19" y="22"/><rect x="20" y="22"/><rect x="23" y="22"/><rect x="24" y="22"/><rect x="25" y="22"/><rect x="8" y="23"/><rect x="9" y="23"/><rect x="14" y="23"/><rect x="15" y="23"/><rect x="20" y="23"/><rect x="21" y="23"/><rect x="22" y="23"/><rect x="23" y="23"/><rect x="24" y="23"/><rect x="8" y="24"/><rect x="9" y="24"/><rect x="21" y="24"/><rect x="22" y="24"/><rect x="23" y="24"/><rect x="8" y="25"/><rect x="9" y="25"/><rect x="20" y="25"/><rect x="21" y="25"/><rect x="22" y="25"/><rect x="23" y="25"/><rect x="24" y="25"/><rect x="8" y="26"/><rect x="9" y="26"/><rect x="19" y="26"/><rect x="20" y="26"/><rect x="23" y="26"/><rect x="24" y="26"/><rect x="25" y="26"/><rect x="8" y="27"/><rect x="9" y="27"/><rect x="17" y="27"/><rect x="18" y="27"/><rect x="19" y="27"/><rect x="25" y="27"/><rect x="26" y="27"/><rect x="27" y="27"/><rect x="8" y="28"/><rect x="9" y="28"/><rect x="14" y="28"/><rect x="15" y="28"/><rect x="16" y="28"/><rect x="17" y="28"/><rect x="18" y="28"/><rect x="26" y="28"/><rect x="27" y="28"/><rect x="28" y="28"/><rect x="29" y="28"/><rect x="8" y="29"/><rect x="9" y="29"/><rect x="13" y="29"/><rect x="14" y="29"/><rect x="15" y="29"/><rect x="16" y="29"/><rect x="27" y="29"/><rect x="28" y="29"/><rect x="29" y="29"/></svg>