<svg xmlns="http://www.w3.org/2000/svg" viewBox="0 0 32 32"><style>rect{width:1px;height:1px;fill:currentcolor}</style><rect x="9" y="2"/><rect x="10" y="2"/><rect x="11" y="2"/><rect x="12" y="2"/><rect x="13" y="2"/><rect x="18" y="2"/><rect x="19" y="2"/><rect x="2" y="3"/><rect x="3" y="3"/><rect x="4" y="3"/><rect x="5" y="3"/><rect x="6" y="3"/><rect x="7" y="3"/><rect x="8" y="3"/><rect x="9" y="3"/><rect x="10" y="3"/><rect x="11" y="3"/><rect x="12" y="3"/><rect x="13" y="3"/><rect x="18" y="3"/><rect x="19" y="3"/><rect x="2" y="4"/><rect x="3" y="4"/><rect x="4" y="4"/><rect x="5" y="4"/><rect x="6" y="4"/><rect x="7" y="4"/><rect x="8" y="4"/><rect x="15" y="4"/><rect x="16" y="4"/><rect x="17" y="4"/><rect x="18" y="4"/><rect x="19" y="4"/><rect x="20" y="4"/><rect x="21" y="4"/><rect x="22" y="4"/><rect x="23" y="4"/><rect x="24" y="4"/><rect x="25" y="4"/><rect x="7" y="5"/><rect x="8" y="5"/><rect x="15" y="5"/><rect x="16" y="5"/><rect x="17" y="5"/><rect x="18" y="5"/><rect x="19" y="5"/><rect x="20" y="5"/><rect x="21" y="5"/><rect x="22" y="5"/><rect x="23" y="5"/><rect x="24" y="5"/><rect x="25" y="5"/><rect x="7" y="6"/><rect x="8" y="6"/><rect x="18" y="6"/><rect x="19" y="6"/><rect x="24" y="6"/><rect x="25" y="6"/><rect x="7" y="7"/><rect x="8" y="7"/><rect x="18" y="7"/><rect x="19" y="7"/><rect x="24" y="7"/><rect x="25" y="7"/><rect x="2" y="8"/><rect x="3" y="8"/><rect x="4" y="8"/><rect x="5" y="8"/><rect x="6" y="8"/><rect x="7" y="8"/><rect x="8" y="8"/><rect x="9" y="8"/><rect x="10" y="8"/><rect x="11" y="8"/><rect x="12" y="8"/><rect x="13" y="8"/><rect x="18" y="8"/><rect x="19" y="8"/><rect x="24" y="8"/><rect x="25" y="8"/><rect x="2" y="9"/><rect x="3" y="9"/><rect x="4" y="9"/><rect x="5" y="9"/><rect x="6" y="9"/><rect x="7" y="9"/><rect x="8" y="9"/><rect x="9" y="9"/><rect x="10" y="9"/><rect x="11" y="9"/><rect x="12" y="9"/><rect x="13" y="9"/><rect x="18" y="9"/><rect x="19" y="9"/><rect x="24" y="9"/><rect x="25" y="9"/><rect x="3" y="10"/><rect x="4" y="10"/><rect x="7" y="10"/><rect x="8" y="10"/><rect x="11" y="10"/><rect x="12" y="10"/><rect x="17" y="10"/><rect x="18" y="10"/><rect x="24" y="10"/><rect x="25" y="10"/><rect x="28" y="10"/><rect x="29" y="10"/><rect x="3" y="11"/><rect x="4" y="11"/><rect x="7" y="11"/><rect x="8" y="11"/><rect x="11" y="11"/><rect x="12" y="11"/><rect x="16" y="11"/><rect x="17" y="11"/><rect x="24" y="11"/><rect x="25" y="11"/><rect x="26" y="11"/><rect x="27" y="11"/><rect x="28" y="11"/><rect x="29" y="11"/><rect x="3" y="12"/><rect x="4" y="12"/><rect x="7" y="12"/><rect x="8" y="12"/><rect x="11" y="12"/><rect x="12" y="12"/><rect x="15" y="12"/><rect x="16" y="12"/><rect x="17" y="12"/><rect x="25" y="12"/><rect x="26" y="12"/><rect x="27" y="12"/><rect x="28" y="12"/><rect x="29" y="12"/><rect x="3" y="13"/><rect x="4" y="13"/><rect x="7" y="13"/><rect x="8" y="13"/><rect x="11" y="13"/><rect x="12" y="13"/><rect x="3" y="14"/><rect x="4" y="14"/><rect x="7" y="14"/><rect x="8" y="14"/><rect x="11" y="14"/><rect x="12" y="14"/><rect x="2" y="15"/><rect x="3" y="15"/><rect x="4" y="15"/><rect x="5" y="15"/><rect x="6" y="15"/><rect x="7" y="15"/><rect x="8" y="15"/><rect x="9" y="15"/><rect x="10" y="15"/><rect x="11" y="15"/><rect x="12" y="15"/><rect x="13" y="15"/><rect x="15" y="15"/><rect x="16" y="15"/><rect x="17" y="15"/><rect x="18" y="15"/><rect x="19" y="15"/><rect x="20" y="15"/><rect x="21" y="15"/><rect x="22" y="15"/><rect x="23" y="15"/><rect x="24" y="15"/><rect x="25" y="15"/><rect x="26" y="15"/><rect x="27" y="15"/><rect x="28" y="15"/><rect x="2" y="16"/><rect x="3" y="16"/><rect x="4" y="16"/><rect x="5" y="16"/><rect x="6" y="16"/><rect x="7" y="16"/><rect x="8" y="16"/><rect x="9" y="16"/><rect x="10" y="16"/><rect x="11" y="16"/><rect x="12" y="16"/><rect x="13" y="16"/><rect x="15" y="16"/><rect x="16" y="16"/><rect x="17" y="16"/><rect x="18" y="16"/><rect x="19" y="16"/><rect x="20" y="16"/><rect x="21" y="16"/><rect x="22" y="16"/><rect x="23" y="16"/><rect x="24" y="16"/><rect x="25" y="16"/><rect x="26" y="16"/><rect x="27" y="16"/><rect x="28" y="16"/><rect x="3" y="17"/><rect x="4" y="17"/><rect x="7" y="17"/><rect x="8" y="17"/><rect x="11" y="17"/><rect x="12" y="17"/><rect x="17" y="17"/><rect x="27" y="17"/><rect x="28" y="17"/><rect x="3" y="18"/><rect x="4" y="18"/><rect x="7" y="18"/><rect x="8" y="18"/><rect x="11" y="18"/><rect x="12" y="18"/><rect x="17" y="18"/><rect x="18" y="18"/><rect x="26" y="18"/><rect x="27" y="18"/><rect x="3" y="19"/><rect x="4" y="19"/><rect x="7" y="19"/><rect x="8" y="19"/><rect x="11" y="19"/><rect x="12" y="19"/><rect x="18" y="19"/><rect x="19" y="19"/><rect x="26" y="19"/><rect x="27" y="19"/><rect x="3" y="20"/><rect x="4" y="20"/><rect x="7" y="20"/><rect x="8" y="20"/><rect x="11" y="20"/><rect x="12" y="20"/><rect x="19" y="20"/><rect x="20" y="20"/><rect x="25" y="20"/><rect x="26" y="20"/><rect x="3" y="21"/><rect x="4" y="21"/><rect x="7" y="21"/><rect x="8" y="21"/><rect x="11" y="21"/><rect x="12" y="21"/><rect x="20" y="21"/><rect x="21" y="21"/><rect x="24" y="21"/><rect x="25" y="21"/><rect x="2" y="22"/><rect x="3" y="22"/><rect x="4" y="22"/><rect x="5" y="22"/><rect x="6" y="22"/><rect x="7" y="22"/><rect x="8" y="22"/><rect x="9" y="22"/><rect x="10" y="22"/><rect x="11" y="22"/><rect x="12" y="22"/><rect x="13" y="22"/><rect x="21" y="22"/><rect x="22" y="22"/><rect x="23" y="22"/><rect x="24" y="22"/><rect x="2" y="23"/><rect x="3" y="23"/><rect x="4" y="23"/><rect x="5" y="23"/><rect x="6" y="23"/><rect x="7" y="23"/><rect x="8" y="23"/><rect x="9" y="23"/><rect x="10" y="23"/><rect x="11" y="23"/><rect x="12" y="23"/><rect x="13" y="23"/><rect x="22" y="23"/><rect x="23" y="23"/><rect x="7" y="24"/><rect x="8" y="24"/><rect x="21" y="24"/><rect x="22" y="24"/><rect x="23" y="24"/><rect x="2" y="25"/><rect x="3" y="25"/><rect x="7" y="25"/><rect x="8" y="25"/><rect x="12" y="25"/><rect x="13" y="25"/><rect x="20" y="25"/><rect x="21" y="25"/><rect x="23" y="25"/><rect x="24" y="25"/><rect x="2" y="26"/><rect x="3" y="26"/><rect x="7" y="26"/><rect x="8" y="26"/><rect x="12" y="26"/><rect x="13" y="26"/><rect x="19" y="26"/><rect x="20" y="26"/><rect x="24" y="26"/><rect x="25" y="26"/><rect x="2" y="27"/><rect x="3" y="27"/><rect x="7" y="27"/><rect x="8" y="27"/><rect x="9" y="27"/><rect x="10" y="27"/><rect x="11" y="27"/><rect x="12" y="27"/><rect x="13" y="27"/><rect x="17" y="27"/><rect x="18" y="27"/><rect x="19" y="27"/><rect x="25" y="27"/><rect x="26" y="27"/><rect x="27" y="27"/><rect x="2" y="28"/><rect x="3" y="28"/><rect x="4" y="28"/><rect x="5" y="28"/><rect x="6" y="28"/><rect x="7" y="28"/><rect x="8" y="28"/><rect x="9" y="28"/><rect x="10" y="28"/><rect x="11" y="28"/><rect x="12" y="28"/><rect x="13" y="28"/><rect x="16" y="28"/><rect x="17" y="28"/><rect x="18" y="28"/><rect x="26" y="28"/><rect x="27" y="28"/><rect x="28" y="28"/><rect x="29" y="28"/><rect x="2" y="29"/><rect x="3" y="29"/><rect x="4" y="29"/><rect x="5" y="29"/><rect x="6" y="29"/><rect x="7" y="29"/><rect x="8" y="29"/><rect x="15" y="29"/><rect x="16" y="29"/><rect x="28" y="29"/><rect x="29" y="29"/></svg>