<svg xmlns="http://www.w3.org/2000/svg" viewBox="0 0 32 32"><style>rect{width:1px;height:1px;fill:currentcolor}</style><rect x="4" y="4"/><rect x="5" y="4"/><rect x="6" y="4"/><rect x="7" y="4"/><rect x="8" y="4"/><rect x="9" y="4"/><rect x="10" y="4"/><rect x="11" y="4"/><rect x="12" y="4"/><rect x="13" y="4"/><rect x="14" y="4"/><rect x="15" y="4"/><rect x="16" y="4"/><rect x="17" y="4"/><rect x="18" y="4"/><rect x="19" y="4"/><rect x="20" y="4"/><rect x="21" y="4"/><rect x="22" y="4"/><rect x="23" y="4"/><rect x="24" y="4"/><rect x="25" y="4"/><rect x="26" y="4"/><rect x="27" y="4"/><rect x="4" y="5"/><rect x="5" y="5"/><rect x="6" y="5"/><rect x="7" y="5"/><rect x="8" y="5"/><rect x="9" y="5"/><rect x="10" y="5"/><rect x="11" y="5"/><rect x="12" y="5"/><rect x="13" y="5"/><rect x="14" y="5"/><rect x="15" y="5"/><rect x="16" y="5"/><rect x="17" y="5"/><rect x="18" y="5"/><rect x="19" y="5"/><rect x="20" y="5"/><rect x="21" y="5"/><rect x="22" y="5"/><rect x="23" y="5"/><rect x="24" y="5"/><rect x="25" y="5"/><rect x="26" y="5"/><rect x="27" y="5"/><rect x="25" y="9"/><rect x="26" y="9"/><rect x="4" y="10"/><rect x="5" y="10"/><rect x="15" y="10"/><rect x="16" y="10"/><rect x="25" y="10"/><rect x="26" y="10"/><rect x="4" y="11"/><rect x="5" y="11"/><rect x="15" y="11"/><rect x="16" y="11"/><rect x="25" y="11"/><rect x="26" y="11"/><rect x="27" y="11"/><rect x="4" y="12"/><rect x="5" y="12"/><rect x="15" y="12"/><rect x="16" y="12"/><rect x="26" y="12"/><rect x="27" y="12"/><rect x="4" y="13"/><rect x="5" y="13"/><rect x="16" y="13"/><rect x="17" y="13"/><rect x="26" y="13"/><rect x="27" y="13"/><rect x="4" y="14"/><rect x="5" y="14"/><rect x="16" y="14"/><rect x="17" y="14"/><rect x="26" y="14"/><rect x="27" y="14"/><rect x="4" y="15"/><rect x="5" y="15"/><rect x="16" y="15"/><rect x="17" y="15"/><rect x="27" y="15"/><rect x="28" y="15"/><rect x="4" y="16"/><rect x="5" y="16"/><rect x="16" y="16"/><rect x="17" y="16"/><rect x="27" y="16"/><rect x="28" y="16"/><rect x="4" y="17"/><rect x="5" y="17"/><rect x="16" y="17"/><rect x="17" y="17"/><rect x="18" y="17"/><rect x="27" y="17"/><rect x="28" y="17"/><rect x="4" y="18"/><rect x="5" y="18"/><rect x="17" y="18"/><rect x="18" y="18"/><rect x="27" y="18"/><rect x="28" y="18"/><rect x="4" y="19"/><rect x="5" y="19"/><rect x="17" y="19"/><rect x="18" y="19"/><rect x="4" y="20"/><rect x="5" y="20"/><rect x="17" y="20"/><rect x="18" y="20"/><rect x="4" y="21"/><rect x="5" y="21"/><rect x="4" y="22"/><rect x="5" y="22"/><rect x="4" y="23"/><rect x="5" y="23"/><rect x="23" y="23"/><rect x="24" y="23"/><rect x="4" y="24"/><rect x="5" y="24"/><rect x="23" y="24"/><rect x="24" y="24"/><rect x="4" y="25"/><rect x="5" y="25"/><rect x="23" y="25"/><rect x="24" y="25"/><rect x="4" y="26"/><rect x="5" y="26"/><rect x="6" y="26"/><rect x="7" y="26"/><rect x="8" y="26"/><rect x="9" y="26"/><rect x="10" y="26"/><rect x="11" y="26"/><rect x="12" y="26"/><rect x="13" y="26"/><rect x="14" y="26"/><rect x="15" y="26"/><rect x="16" y="26"/><rect x="17" y="26"/><rect x="18" y="26"/><rect x="19" y="26"/><rect x="20" y="26"/><rect x="21" y="26"/><rect x="22" y="26"/><rect x="23" y="26"/><rect x="24" y="26"/><rect x="5" y="27"/><rect x="6" y="27"/><rect x="7" y="27"/><rect x="8" y="27"/><rect x="9" y="27"/><rect x="10" y="27"/><rect x="11" y="27"/><rect x="12" y="27"/><rect x="13" y="27"/><rect x="14" y="27"/><rect x="15" y="27"/><rect x="16" y="27"/><rect x="17" y="27"/><rect x="18" y="27"/><rect x="19" y="27"/><rect x="20" y="27"/><rect x="21" y="27"/><rect x="22" y="27"/><rect x="23" y="27"/><rect x="24" y="27"/></svg>